<?xml version="1.0" encoding="UTF-8"?>
<svg width="53px" height="74px" viewBox="0 0 53 74" version="1.1" xmlns="http://www.w3.org/2000/svg" xmlns:xlink="http://www.w3.org/1999/xlink">
    <!-- Generator: Sketch 40.1 (33804) - http://www.bohemiancoding.com/sketch -->
    <title>Group</title>
    <desc>Created with Sketch.</desc>
    <defs></defs>
    <g id="Page-1" stroke="none" stroke-width="1" fill="none" fill-rule="evenodd">
        <g id="Group" fill="#B0803E">
            <path d="M50.5401442,30.6989812 L2.47470846,30.6989812 C2.1173511,30.6989812 1.82575862,30.312047 1.82575862,29.8273354 C1.82575862,29.3447116 2.1173511,28.9574295 2.47470846,28.9574295 L4.90870533,28.9574295 C5.6119373,21.7010219 15.0121411,15.3893323 26.5067304,15.3893323 C38.0016677,15.3893323 47.4018715,21.7010219 48.1051034,28.9574295 L50.5401442,28.9574295 C50.9020251,28.9574295 51.189442,29.3447116 51.189442,29.8273354 C51.189442,30.312047 50.9020251,30.6989812 50.5401442,30.6989812" id="Fill-9"></path>
            <path d="M4.18737931,34.6358276 L6.16728527,34.6358276 L6.16728527,59.0572194 L46.4665486,59.0572194 L46.4665486,34.6358276 L48.3173605,34.6358276 L48.3173605,70.4460282 L46.4665486,70.4460282 L46.4665486,61.0827085 L6.16728527,61.0827085 L6.16728527,70.4460282 L4.18737931,70.4460282 L4.18737931,34.6358276 L4.18737931,34.6358276 Z M0.00452351097,71.7543668 C0.00452351097,72.4770846 0.590492163,73.0630533 1.31321003,73.0630533 L51.7005987,73.0630533 C52.4233166,73.0630533 53.0092853,72.4770846 53.0092853,71.7543668 C53.0092853,71.0316489 52.4233166,70.4460282 51.7005987,70.4460282 L50.9100282,70.4460282 L50.9100282,34.6358276 L51.8335204,34.6358276 C52.4828182,34.6358276 53.0092853,34.1097085 53.0092853,33.4600627 C53.0092853,32.8086771 52.4828182,32.2794263 51.8335204,32.2794263 L1.18168025,32.2794263 C0.532034483,32.2794263 0.00452351097,32.8086771 0.00452351097,33.4600627 C0.00452351097,34.1097085 0.532034483,34.6358276 1.18168025,34.6358276 L1.80348903,34.6358276 L1.80348903,70.4460282 L1.31321003,70.4460282 C0.590492163,70.4460282 0.00452351097,71.0316489 0.00452351097,71.7543668 L0.00452351097,71.7543668 Z" id="Fill-10"></path>
            <path d="M29.2792947,10.156326 L28.7938871,10.156326 L28.7938871,11.756953 L27.9124984,11.756953 L28.5586646,14.0274075 C28.5586646,14.0274075 26.890185,13.7514734 24.4561881,14.0274075 L25.1159248,11.756953 L24.2216614,11.756953 L24.2216614,10.6448652 L22.5900658,10.6448652 L17.1437586,6.32595611 L1.82575862,6.32595611 L1.82575862,1.73772414 C1.82575862,0.824670846 2.56587461,0.0845548589 3.47857994,0.0845548589 C4.39163323,0.0845548589 5.13174922,0.824670846 5.13174922,1.73772414 L5.13174922,4.6999279 L17.445094,4.6999279 L22.8026708,8.77526332 L25.8052382,8.77282759 L25.8052382,7.46796865 L25.2565016,7.46796865 C24.9088871,7.46796865 24.5981567,7.21360815 24.5651003,6.86738558 C24.5271724,6.4703605 24.8385987,6.13596865 25.2279687,6.13596865 L27.759047,6.13596865 C28.1070094,6.13596865 28.4177398,6.39032915 28.4507962,6.73655172 C28.4883762,7.13392476 28.1772978,7.46796865 27.7875799,7.46796865 L27.2103103,7.46796865 L27.2103103,8.77213166 L29.3085235,8.77039185 C29.7138997,8.77004389 30.0382006,9.11800627 29.9988809,9.53138558 C29.9644326,9.89187461 29.6411755,10.156326 29.2792947,10.156326" id="Fill-11"></path>
        </g>
    </g>
</svg>