<?xml version="1.0" encoding="UTF-8"?>
<svg width="55px" height="71px" viewBox="0 0 55 71" version="1.1" xmlns="http://www.w3.org/2000/svg" xmlns:xlink="http://www.w3.org/1999/xlink">
    <!-- Generator: Sketch 40.1 (33804) - http://www.bohemiancoding.com/sketch -->
    <title>Group 2</title>
    <desc>Created with Sketch.</desc>
    <defs></defs>
    <g id="Page-1" stroke="none" stroke-width="1" fill="none" fill-rule="evenodd">
        <g id="Group-2" fill="#B0803E">
            <path d="M28.7139403,32.7179467 L44.4650564,32.7179467 L44.4650564,5.31242947 L49.0393699,5.31242947 L49.0393699,64.8794138 L5.8770721,64.8794138 L5.8770721,4.85277116 L10.8515423,4.85277116 L10.8522382,32.7179467 L26.5635328,32.7179467 L28.7139413,32.7174667 Z M12.9810721,5.7024953 L12.9810721,30.5170846 L42.2450564,30.5170846 L42.2450564,5.7024953 C42.2450564,2.82241066 39.9102288,0.487931034 37.0304922,0.487931034 L18.1952884,0.487931034 C15.3155517,0.487931034 12.9810721,2.82241066 12.9810721,5.7024953 Z M27.6139342,20.8760909 C24.6106708,20.8760909 22.1756301,18.4393103 22.1756301,15.436047 C22.1756301,12.4324357 24.6106708,9.99774295 27.6139342,9.99774295 C30.6189373,9.99774295 33.054326,12.4324357 33.054326,15.436047 C33.054326,18.4393103 30.6189373,20.8760909 27.6139342,20.8760909 Z M28.7139403,32.7179467 L26.5635328,32.7179467 L26.5376865,45.7404389 L14.8346677,45.7404389 C14.8346677,45.7404389 14.5806552,46.7220408 14.4640878,48.2262821 C12.9814201,47.3720345 11.3578276,47.247116 10.1570094,48.0568245 C8.23938871,49.3491567 8.12595298,52.5337085 9.90334483,55.1691755 C11.677953,57.801163 14.665906,58.8899373 16.5835266,57.606652 C17.0028213,58.235768 17.4979718,58.8440063 18.0811567,59.4167524 L18.0811567,61.3270658 L37.5614828,61.3270658 L37.5614828,59.4181442 C37.5614828,59.4181442 42.6420815,53.8904138 40.491326,45.7404389 L28.688094,45.7404389 L28.7139403,32.7179467 Z M15.4763103,55.9451317 C14.2239937,56.7896364 12.2680972,56.0794451 11.1072947,54.3577273 C9.94649216,52.6363574 10.0209561,50.5551944 11.2729248,49.7113856 C12.1456144,49.1229812 13.3606991,49.291395 14.4101536,50.0301191 C14.4418182,51.7737586 14.7292351,53.8448307 15.6154953,55.8414389 C15.5706082,55.877627 15.5246771,55.9127712 15.4763103,55.9451317 Z" id="Combined-Shape"></path>
            <path d="M52.5638809,70.9579687 L1.89394671,70.9579687 C0.873721003,70.9579687 0.0469623824,70.1308621 0.0469623824,69.1109843 C0.0469623824,68.0907586 0.873721003,67.264 1.89394671,67.264 L52.5638809,67.264 C53.5841066,67.264 54.4108652,68.0907586 54.4108652,69.1109843 C54.4108652,70.1308621 53.5841066,70.9579687 52.5638809,70.9579687" id="Fill-25"></path>
        </g>
    </g>
</svg>