<?xml version="1.0" encoding="UTF-8"?>
<svg width="63px" height="70px" viewBox="0 0 63 70" version="1.1" xmlns="http://www.w3.org/2000/svg" xmlns:xlink="http://www.w3.org/1999/xlink">
    <!-- Generator: Sketch 40.1 (33804) - http://www.bohemiancoding.com/sketch -->
    <title>Group 3</title>
    <desc>Created with Sketch.</desc>
    <defs></defs>
    <g id="Page-1" stroke="none" stroke-width="1" fill="none" fill-rule="evenodd">
        <g id="Group-3" fill="#B0803E">
            <path d="M10.2015799,65.1818809 C9.16326019,65.1818809 8.32119122,64.3401599 8.32119122,63.3021881 C8.32119122,62.2642163 9.16326019,61.4217994 10.2015799,61.4217994 L60.8972633,61.4217994 C61.9352351,61.4217994 62.7773041,62.2642163 62.7773041,63.3021881 C62.7773041,64.3401599 61.9352351,65.1818809 60.8972633,65.1818809 L10.2015799,65.1818809" id="Fill-12"></path>
            <path d="M5.17317555,38.8825361 C6.8200815,37.7721881 9.11350157,38.0898777 11.0944514,39.484511 C11.1543009,42.7751912 11.6964263,46.6845486 13.3694295,50.4529812 C13.2845266,50.5211818 13.197884,50.5872947 13.1067179,50.648884 C10.7430094,52.2425517 7.05112853,50.9018527 4.86070533,47.652232 C2.66958621,44.4036552 2.80981505,40.4755078 5.17317555,38.8825361 L5.17317555,38.8825361 Z M2.58816301,49.1843103 C5.9376489,54.1521693 11.5770752,56.2068871 15.1965799,53.784373 C15.9885423,54.9723166 16.9224734,56.1205925 18.0234263,57.2013636 L18.0234263,59.4297147 L54.7919154,59.4297147 L54.7919154,57.2037994 C54.7919154,57.2037994 64.3814107,46.7701473 60.3217335,31.3877743 L11.8954608,31.3877743 C11.8954608,31.3877743 11.4159687,33.240674 11.1964044,36.0793511 C8.39809091,34.4672414 5.33323824,34.2313229 3.06661129,35.7595737 C-0.552197492,38.1991379 -0.766890282,44.2098401 2.58816301,49.1843103 L2.58816301,49.1843103 Z" id="Fill-13"></path>
            <path d="M18.794163,69.0167743 L52.3046803,69.0167743 C54.7550313,69.0167743 56.9673762,67.5501129 57.921489,65.2932288 L59.1209154,62.4569875 L11.9779279,62.4569875 L13.1770063,65.2932288 C14.1314671,67.5501129 16.3438119,69.0167743 18.794163,69.0167743" id="Fill-14"></path>
            <path d="M41.1413511,26.2250564 C41.1413511,26.2250564 41.2154671,26.1123166 41.3626552,25.9164138 C42.224906,24.7705737 41.9326176,23.1664671 41.281232,21.9952257 C40.7140533,20.9756959 39.8712884,20.142674 39.0542727,19.309652 C37.1251693,17.3429687 35.2360815,15.2277053 34.2670063,12.6486082 C33.3929248,10.3214357 33.3452539,7.65639185 34.3230282,5.37062696 C35.2858401,3.11931034 37.5260219,0.899310345 40.0668433,0.644601881 C40.3152884,0.613633229 40.4478621,0.608761755 40.4478621,0.608761755 C40.4478621,0.608761755 40.3852288,0.731940439 40.2679655,0.941761755 C39.3524765,2.57683699 38.6802132,4.4794953 38.7536332,6.37310658 C38.8277492,8.27994044 39.661815,10.07821 40.6716019,11.697627 C41.6813887,13.3166959 42.8804671,14.8164138 43.8084828,16.4835016 C44.7368464,18.1509373 45.3934514,20.0490721 45.184326,21.9454671 C45.0009498,23.6083793 43.5649091,26.404605 41.521326,26.2358433 C41.2763605,26.2344514 41.1413511,26.2250564 41.1413511,26.2250564" id="Fill-15"></path>
        </g>
    </g>
</svg>